<?xml version="1.0" standalone="no"?>
<!DOCTYPE svg PUBLIC "-//W3C//DTD SVG 20010904//EN"
 "http://www.w3.org/TR/2001/REC-SVG-20010904/DTD/svg10.dtd">
<svg version="1.0" xmlns="http://www.w3.org/2000/svg"
 width="640.000000pt" height="640.000000pt" viewBox="0 0 640.000000 640.000000"
 preserveAspectRatio="xMidYMid meet">
<metadata>
Created by potrace 1.11, written by Peter Selinger 2001-2013
</metadata>
<g transform="translate(0.000000,640.000000) scale(0.100000,-0.100000)"
fill="#000000" stroke="none">
<path d="M3166 6373 c-3 -15 -10 -55 -16 -88 -5 -33 -12 -71 -15 -85 -3 -13
-7 -40 -10 -60 -3 -19 -12 -64 -18 -100 l-12 -65 -41 55 -41 56 -181 -1 c-100
0 -185 -4 -189 -9 -10 -10 -12 -1142 -2 -1158 5 -7 28 -12 53 -12 55 1 52 -10
-8 -25 -24 -6 -55 -15 -68 -20 -13 -5 -25 -9 -28 -9 -6 -1 -124 -53 -190 -85
-75 -35 -291 -182 -364 -247 -37 -34 -74 -59 -81 -56 -17 6 -39 -19 -30 -34 3
-6 -5 -23 -19 -38 -66 -71 -83 -91 -133 -159 -29 -39 -53 -76 -53 -82 0 -5 -4
-11 -8 -13 -19 -7 -137 -233 -161 -310 -13 -38 -13 -38 -69 -38 -31 0 -63 -4
-69 -8 -11 -7 -25 -58 -38 -142 -2 -14 -6 -34 -8 -45 -3 -11 -8 -39 -12 -63
-5 -33 -13 -45 -31 -52 -13 -5 -30 -7 -37 -5 -7 3 -30 69 -51 148 -22 78 -43
148 -49 155 -7 9 -58 12 -193 12 -165 0 -184 -2 -193 -18 -8 -14 -32 -96 -45
-152 -2 -8 -10 -35 -17 -60 -7 -25 -13 -49 -15 -55 -18 -84 -53 -169 -55 -134
0 7 -2 21 -4 29 -7 30 -13 56 -21 100 -4 25 -8 47 -9 50 -1 3 -5 28 -10 55 -5
28 -10 52 -10 55 -2 10 -19 95 -20 100 -4 27 -23 30 -204 30 -121 0 -191 -4
-198 -11 -10 -10 -9 -20 17 -129 6 -27 10 -49 14 -70 2 -14 9 -43 14 -65 6
-22 13 -53 16 -70 3 -16 10 -45 15 -62 5 -18 8 -33 5 -33 -3 0 0 -9 6 -20 9
-17 7 -22 -13 -29 -13 -5 -48 -12 -78 -16 -30 -4 -56 -8 -59 -10 -3 -2 -26 -6
-50 -10 -77 -11 -80 -13 -80 -56 0 -24 5 -39 13 -40 6 0 21 -3 32 -5 11 -3 36
-7 55 -11 85 -13 222 -42 227 -47 5 -4 14 -44 49 -206 3 -14 12 -54 20 -90 18
-77 22 -93 30 -140 4 -19 11 -41 17 -47 14 -18 380 -18 394 0 10 12 66 202 77
262 1 6 4 15 8 20 3 6 9 29 13 53 l7 43 46 -7 c26 -3 52 -11 58 -18 6 -6 28
-76 49 -156 21 -80 45 -160 52 -177 l13 -33 182 -2 181 -3 14 -40 c24 -73 72
-175 132 -280 45 -79 159 -236 225 -309 19 -22 33 -43 30 -48 -8 -13 16 -38
31 -32 7 3 24 -6 38 -20 95 -95 305 -236 462 -311 84 -39 302 -115 334 -115
31 0 29 -9 -11 -50 -86 -91 -115 -221 -77 -339 10 -32 50 -91 86 -129 24 -24
125 -81 175 -98 52 -17 55 -27 10 -30 -228 -11 -305 -18 -322 -29 -18 -11 7
-147 38 -210 29 -59 95 -137 140 -166 49 -31 149 -65 216 -73 21 -2 41 -8 46
-13 4 -4 17 -69 29 -143 29 -180 25 -170 72 -170 21 0 40 5 40 10 1 6 2 13 3
18 1 4 5 29 10 55 4 27 9 59 12 70 2 12 7 36 9 52 3 17 9 46 12 65 4 19 6 38
5 43 -1 4 1 7 6 8 193 21 333 112 398 257 49 109 46 222 -8 324 -38 72 -91
119 -180 161 -37 18 -68 35 -68 40 0 4 17 7 38 8 123 3 196 10 207 19 33 27
-24 208 -85 270 -19 20 -25 32 -17 34 6 2 35 10 62 16 265 65 540 207 749 389
38 33 72 58 77 56 11 -8 40 25 33 37 -4 6 0 16 8 22 24 18 144 171 200 254 94
142 188 358 234 537 4 17 8 32 9 35 1 3 5 23 9 45 4 22 9 49 11 60 3 15 13 21
35 23 17 1 36 3 43 5 8 1 11 -39 12 -138 0 -77 4 -146 8 -152 11 -18 982 -19
993 -2 8 14 10 302 1 315 -3 6 -119 10 -291 9 l-286 0 0 23 c0 12 3 22 8 23
25 3 67 10 137 23 108 20 122 22 260 46 66 11 131 22 145 25 14 2 41 7 60 10
85 13 267 45 288 50 18 4 22 12 22 45 0 25 -5 40 -12 41 -7 0 -20 2 -28 4 -45
11 -68 16 -100 20 -20 3 -60 9 -90 15 -48 9 -95 18 -137 24 -20 3 -26 13 -28
46 -2 17 -6 34 -9 38 -4 3 -116 7 -249 7 -133 0 -247 4 -253 7 -6 4 -11 22
-10 40 l1 33 274 2 c205 1 276 4 281 14 11 17 9 282 -3 297 -14 18 -960 18
-974 0 -5 -7 -9 -79 -8 -161 l1 -148 -32 5 c-57 9 -59 13 -87 129 -68 283
-210 554 -400 763 -23 25 -43 51 -43 58 -1 6 -2 17 -3 24 0 6 -10 12 -20 12
-10 0 -56 32 -102 71 -116 98 -260 191 -392 254 -114 54 -250 105 -280 105 -9
0 -18 4 -22 10 -3 5 9 8 29 6 65 -7 61 -42 62 584 0 313 -3 575 -7 582 -11 18
-376 19 -391 1 -5 -7 -10 -70 -10 -145 0 -131 -8 -135 -23 -13 -6 51 -8 62
-18 105 -3 14 -11 59 -17 100 -13 82 -17 102 -25 140 -3 14 -7 41 -10 60 -10
76 -9 75 -52 78 -38 3 -42 1 -47 -25z m-118 -493 c74 -108 181 -266 302 -443
53 -76 81 -95 94 -61 3 9 6 152 6 318 l0 302 110 0 c90 0 111 -3 114 -16 4
-14 1 -967 -2 -981 -1 -3 -56 -5 -123 -5 l-121 0 -99 144 c-54 79 -99 145 -99
148 0 2 -7 12 -15 21 -8 10 -58 83 -112 162 -97 142 -124 173 -140 157 -4 -4
-10 -148 -13 -319 l-5 -312 -107 -1 c-68 0 -109 4 -111 10 -4 10 -2 990 1 992
1 0 56 0 122 0 l121 -1 77 -115z m-163 -1081 c-2 -11 -6 -28 -9 -37 -3 -9 -7
-39 -11 -67 -3 -27 -8 -57 -10 -65 -5 -19 -14 -66 -20 -110 -3 -19 -7 -46 -10
-60 -3 -14 -8 -41 -11 -60 -17 -91 -33 -178 -38 -205 -2 -11 -7 -39 -11 -62
-4 -24 -10 -43 -15 -43 -9 0 -137 60 -434 204 -109 53 -202 96 -206 96 -4 0
-12 6 -18 13 -21 24 206 188 378 273 108 53 290 119 357 130 21 3 40 8 42 10
11 11 19 2 16 -17z m770 -11 c231 -65 440 -174 619 -324 l69 -57 -109 -52
c-139 -66 -285 -136 -448 -214 -70 -34 -130 -60 -132 -58 -6 6 -14 45 -20 96
-3 24 -7 47 -9 51 -2 3 -7 29 -10 56 -4 27 -10 65 -15 84 -5 19 -11 53 -14 75
-4 22 -8 51 -11 65 -2 14 -7 41 -9 60 -6 39 -14 83 -21 120 -3 14 -8 42 -10
62 -3 21 -5 41 -6 45 -4 27 1 27 126 -9z m-1611 -610 c35 -73 103 -214 151
-313 105 -218 109 -227 92 -224 -9 2 -69 -7 -107 -16 -3 -1 -30 -5 -60 -10
-30 -5 -57 -9 -60 -10 -3 0 -27 -4 -53 -9 -27 -4 -59 -9 -70 -12 -12 -2 -51
-9 -86 -14 -35 -6 -66 -12 -70 -13 -3 -1 -8 0 -10 3 -7 9 11 110 20 116 5 3 7
9 5 13 -3 4 -1 23 3 43 11 49 0 58 -76 58 -44 0 -63 4 -63 13 0 22 109 228
162 306 56 83 145 197 156 200 1 1 31 -59 66 -131z m2514 -13 c5 -6 17 -24 28
-40 10 -17 21 -32 24 -35 6 -6 28 -44 51 -88 10 -18 21 -38 26 -45 27 -36 136
-312 123 -312 -2 0 2 -10 8 -22 7 -12 14 -35 16 -50 2 -15 7 -37 12 -47 8 -21
5 -21 -156 9 -14 3 -41 7 -60 10 -19 3 -48 8 -65 12 -16 3 -39 7 -50 9 -11 1
-60 10 -110 19 -49 10 -101 19 -115 21 -14 3 -36 7 -50 9 -32 7 -81 16 -97 19
-30 5 -35 -8 186 449 44 93 81 170 81 173 0 3 7 16 16 29 l16 24 54 -67 c30
-37 58 -72 62 -77z m-2301 35 c10 -5 121 -59 247 -120 127 -61 231 -112 232
-113 2 -2 -28 -155 -35 -182 0 -3 -1 -15 -1 -27 0 -13 -4 -28 -8 -35 -6 -10
-223 -53 -267 -53 -10 0 -31 31 -59 93 -24 50 -87 181 -140 291 -53 109 -96
200 -96 202 0 3 100 -40 127 -56z m2030 53 c-2 -5 -12 -26 -22 -48 -25 -54
-221 -461 -243 -505 -16 -31 -23 -35 -53 -33 -36 2 -249 40 -254 45 -5 5 -46
250 -43 252 2 2 21 11 43 21 46 21 372 178 490 235 87 43 88 43 82 33z m-984
-435 c23 -5 50 -11 60 -13 11 -3 51 -20 90 -40 340 -168 436 -606 200 -902
-118 -148 -273 -222 -465 -221 -293 0 -533 203 -584 494 -9 48 -8 167 1 214
52 269 305 477 583 478 40 0 92 -5 115 -10z m-2758 -265 c15 -82 29 -157 31
-168 3 -11 7 -35 10 -54 3 -18 8 -42 10 -52 2 -11 6 -28 8 -38 3 -11 8 -40 11
-66 9 -55 27 -77 62 -70 14 2 27 5 28 7 2 2 13 39 25 83 12 44 26 94 31 110
14 45 80 287 85 310 2 11 8 34 12 50 l8 30 129 0 128 0 42 -150 c24 -82 44
-152 44 -155 1 -3 6 -23 12 -45 6 -22 13 -47 15 -55 2 -8 12 -46 23 -85 11
-38 21 -73 21 -77 0 -17 43 -30 65 -20 21 10 27 27 40 112 8 53 22 125 25 125
1 0 3 14 5 30 2 17 10 64 19 105 9 41 18 91 21 110 3 19 9 51 13 70 l8 35 112
3 c62 1 112 -1 112 -5 0 -4 -9 -48 -20 -98 -11 -49 -23 -101 -25 -115 -3 -14
-26 -115 -50 -225 -25 -110 -47 -211 -50 -225 -2 -14 -9 -45 -14 -70 -6 -25
-13 -56 -15 -69 -9 -43 -38 -166 -42 -179 -3 -10 -35 -12 -135 -10 l-132 3
-29 105 c-16 58 -31 116 -34 130 -2 14 -7 32 -10 40 -6 15 -61 210 -68 240
-14 58 -57 195 -64 202 -19 19 -41 -6 -56 -65 -10 -34 -20 -69 -23 -77 -8 -19
-13 -40 -17 -65 -2 -11 -5 -20 -6 -20 -1 0 -4 -9 -6 -20 -2 -11 -32 -121 -67
-245 l-64 -225 -130 -3 -131 -3 -20 88 c-30 125 -52 221 -62 273 -5 25 -23
105 -40 178 -16 73 -32 147 -35 165 -4 18 -19 87 -36 154 -16 68 -29 127 -29
133 0 6 44 10 114 10 l114 0 27 -147z m5412 75 l-2 -72 -272 0 c-149 -1 -275
-5 -280 -9 -11 -11 -13 -221 -2 -238 6 -11 60 -14 251 -15 134 -1 248 -2 254
-3 7 -1 11 -25 11 -65 l0 -64 -250 0 c-224 1 -251 -1 -262 -16 -14 -18 -16
-269 -2 -282 4 -4 133 -7 287 -7 249 0 280 -2 281 -16 1 -9 2 -44 3 -79 l1
-62 -415 2 -415 3 -1 490 c0 270 1 493 3 498 2 4 186 7 408 7 l403 0 -1 -72z
m-4247 -763 c47 -8 96 -17 110 -20 14 -3 39 -8 55 -10 45 -8 257 -45 285 -50
111 -20 146 -27 151 -31 4 -2 -18 -55 -48 -116 -66 -134 -150 -309 -227 -472
l-57 -118 -30 33 c-53 60 -166 222 -208 299 -39 73 -99 207 -107 239 -2 9 -13
43 -24 75 -11 33 -20 65 -20 72 0 26 22 114 28 114 4 0 45 -7 92 -15z m3135
-23 c-4 -20 -9 -48 -11 -60 -16 -85 -96 -285 -167 -417 -56 -105 -220 -326
-232 -313 -2 2 -31 60 -63 128 -33 69 -92 193 -132 275 -128 264 -141 295
-127 300 6 2 66 13 132 24 66 12 129 23 140 25 11 2 40 7 65 11 69 10 93 14
120 20 14 3 43 8 65 11 22 3 69 11 105 18 116 21 113 22 105 -22z m-2290 -128
c50 -9 97 -18 105 -19 8 -2 18 -4 21 -4 7 -1 14 -34 24 -106 3 -22 10 -60 15
-85 23 -113 25 -107 -43 -139 -34 -16 -150 -71 -257 -123 -253 -122 -284 -137
-288 -133 -1 1 41 92 93 201 53 110 122 252 152 317 43 88 60 116 72 113 9 -3
57 -13 106 -22z m1531 -191 c54 -114 122 -254 150 -312 28 -58 50 -108 48
-110 -2 -2 -50 19 -106 47 -57 28 -196 96 -310 151 -203 97 -208 100 -204 128
3 27 34 201 41 233 2 8 4 18 4 21 1 7 81 23 174 35 23 4 44 8 46 10 2 2 16 4
31 4 24 0 33 -15 126 -207z m-334 -292 c57 -27 177 -84 268 -128 91 -44 198
-95 237 -114 40 -19 73 -38 73 -44 -1 -13 -134 -117 -225 -176 -104 -67 -314
-165 -395 -185 -8 -2 -40 -10 -70 -19 -30 -8 -68 -17 -83 -20 -16 -3 -32 -7
-35 -8 -13 -4 -14 9 -6 63 4 30 8 57 9 60 2 8 15 73 20 105 3 17 12 68 20 115
8 47 17 99 20 115 3 17 12 64 19 105 22 116 30 164 28 173 -4 14 18 7 120 -42z
m-991 32 c0 -5 2 -17 4 -28 2 -11 7 -40 11 -65 4 -25 9 -52 10 -60 2 -8 5 -26
7 -40 6 -36 37 -210 43 -240 2 -14 6 -41 9 -60 2 -19 11 -73 19 -120 21 -110
21 -108 -13 -104 -56 6 -278 85 -379 134 -95 47 -253 147 -312 197 -14 12 -38
33 -55 47 -16 14 -27 27 -25 29 5 3 37 18 330 158 85 41 193 93 240 116 85 42
109 49 111 36z m569 -827 c65 -11 140 -44 178 -80 32 -30 88 -133 78 -143 -3
-3 -27 -7 -53 -9 -26 -2 -76 -5 -111 -8 -58 -4 -64 -3 -72 18 -29 77 -113 122
-210 113 -64 -5 -101 -23 -124 -60 -15 -23 -28 -97 -17 -97 3 0 11 -10 16 -22
14 -32 69 -56 203 -89 255 -61 342 -109 393 -217 15 -33 19 -61 18 -113 -3
-110 -55 -200 -149 -258 -28 -17 -50 -28 -50 -25 0 4 -6 2 -12 -4 -32 -25
-250 -43 -348 -28 -99 15 -121 19 -126 27 -3 5 -12 9 -21 9 -26 0 -100 62
-130 109 -15 24 -28 47 -28 50 0 3 -3 11 -6 16 -4 6 -10 25 -14 43 -7 35 -10
33 60 37 172 9 175 9 175 -13 0 -10 13 -39 29 -64 79 -124 304 -127 367 -5 23
44 20 102 -8 143 -20 29 -89 74 -123 80 -22 4 -144 36 -202 54 -185 56 -274
148 -268 278 2 54 24 113 57 152 18 21 87 71 101 74 7 2 24 8 39 14 14 6 52
14 85 18 32 3 59 7 61 8 5 5 169 -2 212 -8z"/>
</g>
</svg>
